<?xml version="1.0" encoding="UTF-8"?>
<!DOCTYPE svg PUBLIC "-//W3C//DTD SVG 1.1//EN" "http://www.w3.org/Graphics/SVG/1.1/DTD/svg11.dtd">
<svg version="1.1" xmlns="http://www.w3.org/2000/svg" xmlns:xlink="http://www.w3.org/1999/xlink" x="0" y="0" width="612" height="792" viewBox="0, 0, 612, 792">
  <g id="Layer_1">
    <g>
      <path d="M223.379,214.695 Q257.4,214.695 287.775,223.808 Q318.15,232.92 346.095,251.753 L343.057,218.947 L375.862,218.947 L375.862,359.887 L353.992,359.887 Q347.917,302.783 314.201,271.193 Q280.485,239.603 227.632,239.603 Q195.435,239.603 167.186,253.271 Q138.937,266.94 117.675,292.455 Q96.412,317.97 84.262,353.813 Q72.112,389.655 72.112,434.61 Q72.112,491.715 93.982,535.455 Q115.852,579.195 152.91,603.495 Q189.967,627.795 234.922,627.795 Q274.41,627.795 312.682,609.874 Q350.955,591.953 375.255,557.933 L391.049,570.69 Q364.927,606.533 334.552,625.973 Q304.177,645.413 274.106,652.399 Q244.035,659.385 219.127,659.385 Q173.565,659.385 135.596,642.983 Q97.627,626.58 69.986,597.116 Q42.345,567.653 27.461,528.469 Q12.577,489.285 12.577,443.723 Q12.577,400.59 25.639,359.888 Q38.7,319.185 64.822,286.38 Q90.945,253.575 130.736,234.135 Q170.527,214.695 223.38,214.695 z" fill="#000000"/>
      <path d="M506.677,132.615 Q514.373,132.615 518.423,137.273 Q522.473,141.93 523.89,148.815 Q525.308,155.7 524.498,162.18 Q522.473,184.455 517.815,209.97 Q513.158,235.485 509.918,253.71 Q524.903,250.47 539.888,247.635 Q554.873,244.8 569.858,242.775 Q576.338,241.965 583.223,242.37 Q590.108,242.775 594.765,246.015 Q599.423,249.255 599.423,256.95 Q599.423,264.24 594.765,267.683 Q590.108,271.125 583.223,271.53 Q576.338,271.935 569.858,271.125 Q555.278,269.1 540.293,266.265 Q525.308,263.43 510.323,260.595 Q514.778,282.87 519.03,299.475 Q523.283,316.08 527.738,327.015 Q523.283,362.655 520.65,399.915 Q518.018,437.175 516.195,474.84 Q514.373,512.505 511.943,550.17 L500.602,550.17 Q498.578,512.505 496.553,474.84 Q494.528,437.175 492.098,399.915 Q489.668,362.655 484.808,327.015 Q489.263,316.08 493.515,299.273 Q497.768,282.465 502.223,260.19 Q487.238,263.025 472.253,266.063 Q457.268,269.1 442.688,271.125 Q436.208,271.935 429.323,271.53 Q422.438,271.125 417.78,267.683 Q413.123,264.24 413.123,256.95 Q413.123,249.255 417.78,246.015 Q422.438,242.775 429.323,242.37 Q436.208,241.965 442.688,242.775 Q457.673,244.8 472.658,247.635 Q487.643,250.47 502.628,253.71 Q499.388,235.485 494.73,209.97 Q490.073,184.455 488.048,162.18 Q487.643,155.7 489.06,148.815 Q490.478,141.93 494.933,137.273 Q499.388,132.615 506.678,132.615 z" fill="#000000"/>
    </g>
  </g>
</svg>
